<svg xmlns="http://www.w3.org/2000/svg" xmlns:xlink="http://www.w3.org/1999/xlink" width="500" zoomAndPan="magnify" viewBox="0 0 375 149.999998" height="200" preserveAspectRatio="xMidYMid meet" version="1.0"><defs><g/></defs><g fill="#ffffff" fill-opacity="1"><g transform="translate(47.389749, 63.702528)"><g><path d="M 12.835938 0 L 44.839844 0 C 45.625 0 46.238281 -0.671875 46.238281 -1.457031 L 46.238281 -13.730469 C 46.238281 -14.515625 45.625 -15.132812 44.839844 -15.132812 L 19.617188 -15.132812 C 18.832031 -15.132812 18.214844 -15.75 18.214844 -16.535156 L 18.214844 -28.304688 C 18.214844 -29.089844 18.832031 -29.707031 19.617188 -29.707031 L 44.839844 -29.707031 C 45.625 -29.707031 46.238281 -30.378906 46.238281 -31.164062 L 46.238281 -43.4375 C 46.238281 -44.222656 45.625 -44.839844 44.839844 -44.839844 L 12.835938 -44.839844 C 6.222656 -44.839844 1.402344 -40.019531 1.402344 -33.40625 L 1.402344 -11.433594 C 1.402344 -4.820312 6.222656 0 12.835938 0 Z M 12.835938 0 "/></g></g></g><g fill="#ffffff" fill-opacity="1"><g transform="translate(97.247667, 63.702528)"><g><path d="M 12.835938 0 L 26.398438 0 C 33.011719 0 37.832031 -4.820312 37.832031 -11.433594 L 37.832031 -33.40625 C 37.832031 -40.019531 33.011719 -44.839844 26.398438 -44.839844 L 12.835938 -44.839844 C 6.222656 -44.839844 1.402344 -40.019531 1.402344 -33.40625 L 1.402344 -11.433594 C 1.402344 -4.820312 6.222656 0 12.835938 0 Z M 19.617188 -12.890625 C 18.832031 -12.890625 18.214844 -13.507812 18.214844 -14.292969 L 18.214844 -30.546875 C 18.214844 -31.332031 18.832031 -31.949219 19.617188 -31.949219 C 20.402344 -31.949219 21.019531 -31.332031 21.019531 -30.546875 L 21.019531 -14.292969 C 21.019531 -13.507812 20.402344 -12.890625 19.617188 -12.890625 Z M 19.617188 -12.890625 "/></g></g></g><g fill="#ffffff" fill-opacity="1"><g transform="translate(138.715206, 63.702528)"><g><path d="M 2.800781 0 L 26.398438 0 C 33.011719 0 37.832031 -4.820312 37.832031 -11.433594 L 37.832031 -33.40625 C 37.832031 -40.019531 33.011719 -44.839844 26.398438 -44.839844 L 2.800781 -44.839844 C 2.019531 -44.839844 1.402344 -44.222656 1.402344 -43.4375 L 1.402344 -1.402344 C 1.402344 -0.617188 2.019531 0 2.800781 0 Z M 19.617188 -12.890625 C 18.832031 -12.890625 18.214844 -13.507812 18.214844 -14.292969 L 18.214844 -30.546875 C 18.214844 -31.332031 18.832031 -31.949219 19.617188 -31.949219 C 20.402344 -31.949219 21.019531 -31.332031 21.019531 -30.546875 L 21.019531 -14.292969 C 21.019531 -13.507812 20.402344 -12.890625 19.617188 -12.890625 Z M 19.617188 -12.890625 "/></g></g></g><g fill="#ffffff" fill-opacity="1"><g transform="translate(180.182745, 63.702528)"><g><path d="M 2.859375 0 L 44.894531 0 C 45.679688 0 46.296875 -0.617188 46.296875 -1.402344 L 46.296875 -12.050781 C 46.296875 -12.835938 45.625 -13.453125 44.839844 -13.453125 L 19.617188 -13.453125 C 18.832031 -13.453125 18.214844 -14.066406 18.214844 -14.851562 C 18.214844 -15.636719 18.832031 -16.253906 19.617188 -16.253906 L 42.652344 -16.253906 C 43.4375 -16.253906 44.054688 -16.871094 44.054688 -17.65625 L 44.054688 -27.183594 C 44.054688 -27.96875 43.382812 -28.585938 42.597656 -28.585938 L 19.617188 -28.585938 C 18.832031 -28.585938 18.214844 -29.199219 18.214844 -29.984375 C 18.214844 -30.769531 18.832031 -31.386719 19.617188 -31.386719 L 44.894531 -31.386719 C 45.679688 -31.386719 46.296875 -32.003906 46.296875 -32.789062 L 46.296875 -43.4375 C 46.296875 -44.222656 45.679688 -44.839844 44.894531 -44.839844 L 2.800781 -44.839844 C 2.019531 -44.839844 1.402344 -44.222656 1.402344 -43.4375 L 1.402344 -1.402344 C 1.402344 -0.617188 2.074219 0 2.859375 0 Z M 2.859375 0 "/></g></g></g><g fill="#ffffff" fill-opacity="1"><g transform="translate(230.111733, 63.702528)"><g><path d="M 2.800781 0 L 16.8125 0 C 17.597656 0 18.214844 -0.671875 18.214844 -1.457031 L 18.214844 -14.574219 C 18.214844 -15.355469 18.832031 -15.972656 19.617188 -15.972656 L 28.023438 -15.972656 C 28.808594 -15.972656 29.425781 -15.355469 29.425781 -14.574219 L 29.425781 -1.402344 C 29.425781 -0.617188 30.042969 0 30.828125 0 L 44.839844 0 C 45.625 0 46.238281 -0.671875 46.238281 -1.457031 L 46.238281 -15.300781 C 46.238281 -18.609375 43.828125 -21.019531 40.523438 -21.019531 L 40.019531 -21.019531 C 39.234375 -21.019531 38.617188 -21.632812 38.617188 -22.417969 C 38.617188 -23.203125 39.234375 -23.820312 40.019531 -23.820312 L 40.523438 -23.820312 C 43.828125 -23.820312 46.238281 -26.230469 46.238281 -29.539062 L 46.238281 -35.703125 C 46.238281 -40.972656 42.371094 -44.839844 37.105469 -44.839844 L 2.800781 -44.839844 C 2.019531 -44.839844 1.402344 -44.222656 1.402344 -43.4375 L 1.402344 -1.402344 C 1.402344 -0.617188 2.019531 0 2.800781 0 Z M 19.617188 -28.863281 C 18.832031 -28.863281 18.214844 -29.480469 18.214844 -30.265625 C 18.214844 -31.050781 18.832031 -31.667969 19.617188 -31.667969 L 28.023438 -31.667969 C 28.808594 -31.667969 29.425781 -31.050781 29.425781 -30.265625 C 29.425781 -29.480469 28.808594 -28.863281 28.023438 -28.863281 Z M 19.617188 -28.863281 "/></g></g></g><g fill="#ffffff" fill-opacity="1"><g transform="translate(279.984687, 63.702528)"><g><path d="M 2.800781 0 L 34.804688 0 C 41.417969 0 46.238281 -4.820312 46.238281 -11.433594 L 46.238281 -17.710938 C 46.238281 -24.324219 41.417969 -29.144531 34.804688 -29.144531 L 19.617188 -29.144531 C 18.832031 -29.144531 18.214844 -29.761719 18.214844 -30.546875 C 18.214844 -31.332031 18.832031 -31.949219 19.617188 -31.949219 L 44.839844 -31.949219 C 45.625 -31.949219 46.238281 -32.5625 46.238281 -33.347656 L 46.238281 -43.4375 C 46.238281 -44.222656 45.625 -44.839844 44.839844 -44.839844 L 12.835938 -44.839844 C 6.222656 -44.839844 1.402344 -40.019531 1.402344 -33.40625 L 1.402344 -27.128906 C 1.402344 -20.511719 6.222656 -15.695312 12.835938 -15.695312 L 28.023438 -15.695312 C 28.808594 -15.695312 29.425781 -15.078125 29.425781 -14.292969 C 29.425781 -13.507812 28.808594 -12.890625 28.023438 -12.890625 L 2.800781 -12.890625 C 2.019531 -12.890625 1.402344 -12.273438 1.402344 -11.488281 L 1.402344 -1.402344 C 1.402344 -0.617188 2.019531 0 2.800781 0 Z M 2.800781 0 "/></g></g></g><g fill="#ffffff" fill-opacity="1"><g transform="translate(77.869373, 130.232055)"><g><path d="M 2.800781 0 L 16.8125 0 C 17.597656 0 18.214844 -0.671875 18.214844 -1.457031 L 18.214844 -14.574219 C 18.214844 -15.355469 18.832031 -15.972656 19.617188 -15.972656 L 28.023438 -15.972656 C 28.808594 -15.972656 29.425781 -15.355469 29.425781 -14.574219 L 29.425781 -1.402344 C 29.425781 -0.617188 30.042969 0 30.828125 0 L 44.839844 0 C 45.625 0 46.238281 -0.671875 46.238281 -1.457031 L 46.238281 -15.300781 C 46.238281 -18.609375 43.828125 -21.019531 40.523438 -21.019531 L 40.019531 -21.019531 C 39.234375 -21.019531 38.617188 -21.632812 38.617188 -22.417969 C 38.617188 -23.203125 39.234375 -23.820312 40.019531 -23.820312 L 40.523438 -23.820312 C 43.828125 -23.820312 46.238281 -26.230469 46.238281 -29.539062 L 46.238281 -35.703125 C 46.238281 -40.972656 42.371094 -44.839844 37.105469 -44.839844 L 2.800781 -44.839844 C 2.019531 -44.839844 1.402344 -44.222656 1.402344 -43.4375 L 1.402344 -1.402344 C 1.402344 -0.617188 2.019531 0 2.800781 0 Z M 19.617188 -28.863281 C 18.832031 -28.863281 18.214844 -29.480469 18.214844 -30.265625 C 18.214844 -31.050781 18.832031 -31.667969 19.617188 -31.667969 L 28.023438 -31.667969 C 28.808594 -31.667969 29.425781 -31.050781 29.425781 -30.265625 C 29.425781 -29.480469 28.808594 -28.863281 28.023438 -28.863281 Z M 19.617188 -28.863281 "/></g></g></g><g fill="#ffffff" fill-opacity="1"><g transform="translate(127.742322, 130.232055)"><g><path d="M 12.835938 0 L 26.398438 0 C 33.011719 0 37.832031 -4.820312 37.832031 -11.433594 L 37.832031 -33.40625 C 37.832031 -40.019531 33.011719 -44.839844 26.398438 -44.839844 L 12.835938 -44.839844 C 6.222656 -44.839844 1.402344 -40.019531 1.402344 -33.40625 L 1.402344 -11.433594 C 1.402344 -4.820312 6.222656 0 12.835938 0 Z M 19.617188 -12.890625 C 18.832031 -12.890625 18.214844 -13.507812 18.214844 -14.292969 L 18.214844 -30.546875 C 18.214844 -31.332031 18.832031 -31.949219 19.617188 -31.949219 C 20.402344 -31.949219 21.019531 -31.332031 21.019531 -30.546875 L 21.019531 -14.292969 C 21.019531 -13.507812 20.402344 -12.890625 19.617188 -12.890625 Z M 19.617188 -12.890625 "/></g></g></g><g fill="#ffffff" fill-opacity="1"><g transform="translate(169.20986, 130.232055)"><g><path d="M 12.835938 0 L 26.398438 0 C 33.011719 0 37.832031 -4.820312 37.832031 -11.433594 L 37.832031 -43.4375 C 37.832031 -44.222656 37.214844 -44.839844 36.429688 -44.839844 L 22.476562 -44.839844 C 21.691406 -44.839844 21.019531 -44.222656 21.019531 -43.4375 L 21.019531 -16.535156 C 21.019531 -15.75 20.402344 -15.132812 19.617188 -15.132812 C 18.832031 -15.132812 18.214844 -15.75 18.214844 -16.535156 L 18.214844 -43.4375 C 18.214844 -44.222656 17.597656 -44.839844 16.8125 -44.839844 L 2.859375 -44.839844 C 2.074219 -44.839844 1.402344 -44.222656 1.402344 -43.4375 L 1.402344 -11.433594 C 1.402344 -4.820312 6.222656 0 12.835938 0 Z M 12.835938 0 "/></g></g></g><g fill="#ffffff" fill-opacity="1"><g transform="translate(210.677394, 130.232055)"><g><path d="M 11.320312 0 L 25.277344 0 C 26.0625 0 26.679688 -0.671875 26.679688 -1.457031 L 26.679688 -28.304688 C 26.679688 -29.089844 27.351562 -29.707031 28.136719 -29.707031 L 33.742188 -29.707031 C 34.527344 -29.707031 35.140625 -30.320312 35.140625 -31.105469 L 35.140625 -43.4375 C 35.140625 -44.164062 34.527344 -44.839844 33.742188 -44.839844 L 2.800781 -44.894531 C 2.019531 -44.894531 1.402344 -44.277344 1.402344 -43.492188 L 1.402344 -31.105469 C 1.402344 -30.320312 2.019531 -29.707031 2.800781 -29.707031 L 8.40625 -29.707031 C 9.191406 -29.707031 9.863281 -29.089844 9.863281 -28.304688 L 9.863281 -1.402344 C 9.863281 -0.617188 10.535156 0 11.320312 0 Z M 11.320312 0 "/></g></g></g><g fill="#ffffff" fill-opacity="1"><g transform="translate(249.455205, 130.232055)"><g><path d="M 2.859375 0 L 44.894531 0 C 45.679688 0 46.296875 -0.617188 46.296875 -1.402344 L 46.296875 -12.050781 C 46.296875 -12.835938 45.625 -13.453125 44.839844 -13.453125 L 19.617188 -13.453125 C 18.832031 -13.453125 18.214844 -14.066406 18.214844 -14.851562 C 18.214844 -15.636719 18.832031 -16.253906 19.617188 -16.253906 L 42.652344 -16.253906 C 43.4375 -16.253906 44.054688 -16.871094 44.054688 -17.65625 L 44.054688 -27.183594 C 44.054688 -27.96875 43.382812 -28.585938 42.597656 -28.585938 L 19.617188 -28.585938 C 18.832031 -28.585938 18.214844 -29.199219 18.214844 -29.984375 C 18.214844 -30.769531 18.832031 -31.386719 19.617188 -31.386719 L 44.894531 -31.386719 C 45.679688 -31.386719 46.296875 -32.003906 46.296875 -32.789062 L 46.296875 -43.4375 C 46.296875 -44.222656 45.679688 -44.839844 44.894531 -44.839844 L 2.800781 -44.839844 C 2.019531 -44.839844 1.402344 -44.222656 1.402344 -43.4375 L 1.402344 -1.402344 C 1.402344 -0.617188 2.074219 0 2.859375 0 Z M 2.859375 0 "/></g></g></g></svg>